<svg width="310" height="100" viewBox="0 0 310 100" fill="none" xmlns="http://www.w3.org/2000/svg">
<g filter="url(#filter0_b_1_139)">
<rect width="310" height="100" rx="10" fill="#002248" fill-opacity="0.3"/>
<rect x="0.5" y="0.5" width="309" height="99" rx="9.5" stroke="url(#paint0_linear_1_139)"/>
</g>
<path d="M239.012 73.8V71.16C238.319 71.0667 237.679 70.8667 237.092 70.56C236.519 70.2533 236.025 69.8467 235.612 69.34C235.199 68.8333 234.892 68.2467 234.692 67.58L236.832 67.1C237.032 67.66 237.312 68.12 237.672 68.48C238.045 68.8267 238.492 69.06 239.012 69.18V64.92C237.745 64.6933 236.759 64.24 236.052 63.56C235.359 62.88 235.012 62.04 235.012 61.04C235.012 60.32 235.179 59.6733 235.512 59.1C235.859 58.5267 236.332 58.06 236.932 57.7C237.532 57.3267 238.225 57.1 239.012 57.02V54.6H240.352V57.04C241.019 57.12 241.625 57.3133 242.172 57.62C242.719 57.9267 243.179 58.3267 243.552 58.82C243.925 59.3133 244.192 59.8867 244.352 60.54L242.252 61.02C242.065 60.4733 241.812 60.04 241.492 59.72C241.185 59.3867 240.805 59.1667 240.352 59.06V62.94L240.692 63C241.945 63.2267 242.899 63.6867 243.552 64.38C244.219 65.0733 244.552 65.9333 244.552 66.96C244.552 67.7467 244.372 68.4467 244.012 69.06C243.652 69.66 243.159 70.1467 242.532 70.52C241.905 70.88 241.179 71.1 240.352 71.18V73.8H239.012ZM237.252 60.84C237.252 61.24 237.379 61.6 237.632 61.92C237.899 62.2267 238.359 62.4733 239.012 62.66V59.02C238.465 59.1133 238.032 59.32 237.712 59.64C237.405 59.96 237.252 60.36 237.252 60.84ZM242.312 67.18C242.312 66.6867 242.145 66.2733 241.812 65.94C241.492 65.5933 241.005 65.34 240.352 65.18V69.22C240.939 69.1267 241.412 68.9 241.772 68.54C242.132 68.18 242.312 67.7267 242.312 67.18ZM249.747 71V59.74L246.747 61.42L245.927 59.48L250.107 57.2H252.067V71H249.747ZM255.1 71V69.24C255.78 68.68 256.373 68.18 256.88 67.74C257.4 67.2867 257.86 66.8733 258.26 66.5C258.66 66.1267 259.033 65.7667 259.38 65.42C259.98 64.82 260.46 64.2933 260.82 63.84C261.193 63.3867 261.467 62.96 261.64 62.56C261.813 62.16 261.9 61.7467 261.9 61.32C261.9 60.8533 261.807 60.4467 261.62 60.1C261.433 59.7533 261.173 59.4867 260.84 59.3C260.52 59.1 260.14 59 259.7 59C259.1 59 258.58 59.1933 258.14 59.58C257.7 59.9533 257.393 60.4733 257.22 61.14L255.02 60.7C255.193 59.94 255.5 59.2733 255.94 58.7C256.393 58.1267 256.947 57.6867 257.6 57.38C258.267 57.06 258.987 56.9 259.76 56.9C260.413 56.9 261.013 57.0133 261.56 57.24C262.107 57.4533 262.58 57.76 262.98 58.16C263.393 58.5467 263.707 59.0067 263.92 59.54C264.147 60.06 264.26 60.6333 264.26 61.26C264.26 61.8333 264.153 62.3933 263.94 62.94C263.727 63.4867 263.387 64.0533 262.92 64.64C262.467 65.2267 261.88 65.8733 261.16 66.58C260.413 67.3133 259.553 68.0867 258.58 68.9H264.5V71H255.1ZM271.588 71.3C270.788 71.3 270.068 71.14 269.428 70.82C268.788 70.4867 268.241 70.0067 267.788 69.38C267.334 68.7533 266.988 68 266.748 67.12C266.521 66.24 266.408 65.2533 266.408 64.16C266.408 63.0267 266.528 62.0133 266.768 61.12C267.021 60.2267 267.381 59.4667 267.848 58.84C268.314 58.2133 268.874 57.7333 269.528 57.4C270.181 57.0667 270.908 56.9 271.708 56.9C272.521 56.9 273.241 57.0667 273.868 57.4C274.508 57.7333 275.048 58.2133 275.488 58.84C275.928 59.4667 276.261 60.22 276.488 61.1C276.728 61.9667 276.848 62.9467 276.848 64.04C276.848 65.16 276.728 66.1667 276.488 67.06C276.248 67.9533 275.894 68.72 275.428 69.36C274.974 69.9867 274.421 70.4667 273.768 70.8C273.128 71.1333 272.401 71.3 271.588 71.3ZM271.628 69.14C272.521 69.14 273.214 68.7067 273.708 67.84C274.214 66.96 274.468 65.7133 274.468 64.1C274.468 62.4867 274.214 61.2467 273.708 60.38C273.214 59.5 272.521 59.06 271.628 59.06C270.734 59.06 270.034 59.5 269.528 60.38C269.034 61.2467 268.788 62.4867 268.788 64.1C268.788 65.7133 269.034 66.96 269.528 67.84C270.034 68.7067 270.734 69.14 271.628 69.14ZM283.834 71.3C283.034 71.3 282.314 71.14 281.674 70.82C281.034 70.4867 280.487 70.0067 280.034 69.38C279.581 68.7533 279.234 68 278.994 67.12C278.767 66.24 278.654 65.2533 278.654 64.16C278.654 63.0267 278.774 62.0133 279.014 61.12C279.267 60.2267 279.627 59.4667 280.094 58.84C280.561 58.2133 281.121 57.7333 281.774 57.4C282.427 57.0667 283.154 56.9 283.954 56.9C284.767 56.9 285.487 57.0667 286.114 57.4C286.754 57.7333 287.294 58.2133 287.734 58.84C288.174 59.4667 288.507 60.22 288.734 61.1C288.974 61.9667 289.094 62.9467 289.094 64.04C289.094 65.16 288.974 66.1667 288.734 67.06C288.494 67.9533 288.141 68.72 287.674 69.36C287.221 69.9867 286.667 70.4667 286.014 70.8C285.374 71.1333 284.647 71.3 283.834 71.3ZM283.874 69.14C284.767 69.14 285.461 68.7067 285.954 67.84C286.461 66.96 286.714 65.7133 286.714 64.1C286.714 62.4867 286.461 61.2467 285.954 60.38C285.461 59.5 284.767 59.06 283.874 59.06C282.981 59.06 282.281 59.5 281.774 60.38C281.281 61.2467 281.034 62.4867 281.034 64.1C281.034 65.7133 281.281 66.96 281.774 67.84C282.281 68.7067 282.981 69.14 283.874 69.14Z" fill="white"/>
<path d="M31.86 36.12C31.86 34.22 30.6 32.82 28.26 32.32C30.12 31.78 31.12 30.52 31.12 29.06C31.12 27.24 29.7 26 27.62 26H20.36V26.04C21.3 26.46 21.86 27.38 21.86 28.44V37.56C21.86 38.62 21.3 39.54 20.36 39.96V40H27.5C30.14 40 31.86 38.54 31.86 36.12ZM25.48 26.66C26.98 26.66 28.26 27.84 28.26 29.74C28.26 31.52 27.36 32.04 26.06 32.04H24.98V26.66H25.48ZM28.76 36.52C28.76 38.62 27.76 39.3 26.3 39.3H24.98V32.76H25.38C27.44 32.76 28.76 34.48 28.76 36.52ZM41.6823 39.96C40.7423 39.48 40.6223 38.84 40.6223 37.56V32.2C40.6223 30.82 39.8223 29.86 37.9823 29.86C37.1023 29.86 36.0223 29.98 34.7423 30.2L33.0823 32.42L33.1223 32.46L33.6623 32.1C35.1623 31.12 36.0223 30.58 36.7223 30.58C37.4423 30.58 37.8423 31.12 37.8423 31.84C37.7623 32.96 37.2223 33.32 35.2823 34.46C33.3623 35.56 32.7223 36.08 32.6623 37.64C32.6623 38.78 33.5023 40.1 35.2023 40.1C35.9823 40.1 36.8423 39.7 37.8223 38.88V40H41.6823V39.96ZM37.8223 37.32C37.8223 38.26 37.3623 38.78 36.7023 38.78C35.9823 38.78 35.3423 38.02 35.3423 37C35.3423 35.96 35.6223 35.42 36.2023 34.86C36.5023 34.56 37.0423 34.1 37.8223 33.48V37.32ZM42.0164 40H46.9764V39.96C46.0364 39.48 45.9164 38.84 45.9164 37.56V26H42.0164V26.04C42.9564 26.52 43.0764 27.16 43.0764 28.44V37.56C43.0764 38.84 42.9564 39.48 42.0164 39.96V40ZM47.2117 40H52.1717V39.96C51.2317 39.48 51.1117 38.84 51.1117 37.56V30H47.2117V30.04C48.1517 30.52 48.2717 31.16 48.2717 32.44V37.56C48.2717 38.84 48.1517 39.48 47.2117 39.96V40ZM48.0117 27.38C48.0117 28.24 48.7317 28.92 49.6117 28.92C50.4917 28.92 51.2117 28.24 51.2117 27.38C51.2117 26.56 50.4917 25.86 49.6117 25.86C48.7317 25.86 48.0117 26.56 48.0117 27.38ZM68.8817 28.44C68.8817 27.38 69.4617 26.46 70.3617 26.04V26H64.2617V26.04C65.2017 26.46 65.7617 27.38 65.7617 28.44V32.02H60.7417V28.44C60.7417 27.38 61.3217 26.46 62.2217 26.04V26H56.1217V26.04C57.0617 26.46 57.6217 27.38 57.6217 28.44V37.56C57.6217 38.62 57.0617 39.54 56.1217 39.96V40H62.2217V39.96C61.3217 39.54 60.7417 38.62 60.7417 37.56V32.76H65.7617V37.56C65.7617 38.62 65.2017 39.54 64.2617 39.96V40H70.3617V39.96C69.4617 39.54 68.8817 38.62 68.8817 37.56V28.44ZM79.7683 39.96C78.8283 39.48 78.7083 38.84 78.7083 37.56V32.2C78.7083 30.82 77.9083 29.86 76.0683 29.86C75.1883 29.86 74.1083 29.98 72.8283 30.2L71.1683 32.42L71.2083 32.46L71.7483 32.1C73.2483 31.12 74.1083 30.58 74.8083 30.58C75.5283 30.58 75.9283 31.12 75.9283 31.84C75.8483 32.96 75.3083 33.32 73.3683 34.46C71.4483 35.56 70.8083 36.08 70.7483 37.64C70.7483 38.78 71.5883 40.1 73.2883 40.1C74.0683 40.1 74.9283 39.7 75.9083 38.88V40H79.7683V39.96ZM75.9083 37.32C75.9083 38.26 75.4483 38.78 74.7883 38.78C74.0683 38.78 73.4283 38.02 73.4283 37C73.4283 35.96 73.7083 35.42 74.2883 34.86C74.5883 34.56 75.1283 34.1 75.9083 33.48V37.32ZM90.1061 39.96C89.1661 39.48 89.0461 38.84 89.0461 37.56V31.54C89.0461 30.56 88.5061 29.88 87.2461 29.88C86.1061 29.88 84.8661 30.4 83.8461 31.04V30H79.9461V30.04C80.8861 30.52 81.0061 31.16 81.0061 32.44V37.56C81.0061 38.84 80.8861 39.48 79.9461 39.96V40H84.7261V39.96C83.9861 39.54 83.8461 38.84 83.8461 37.56V31.68C84.3861 31.3 84.8861 31.1 85.3061 31.1C85.9261 31.1 86.2061 31.64 86.2061 32.36V37.56C86.2061 38.78 86.0261 39.54 85.3061 39.96V40H90.1061V39.96ZM100.139 39.96C99.1986 39.48 99.0786 38.84 99.0786 37.56V26H95.1786V26.04C96.1186 26.52 96.2386 27.16 96.2386 28.44V30H95.7786C93.2386 29.98 90.4586 31.72 90.5186 35.3C90.5186 38.42 92.4786 40 95.4986 40H100.139V39.96ZM96.1986 39.42C94.7186 39.42 93.4386 36.94 93.4386 33.84C93.4386 31.1 94.3186 30.58 95.6786 30.58H96.2386V39.42H96.1986ZM109.456 39.96C108.516 39.48 108.396 38.84 108.396 37.56V32.2C108.396 30.82 107.596 29.86 105.756 29.86C104.876 29.86 103.796 29.98 102.516 30.2L100.856 32.42L100.896 32.46L101.436 32.1C102.936 31.12 103.796 30.58 104.496 30.58C105.216 30.58 105.616 31.12 105.616 31.84C105.536 32.96 104.996 33.32 103.056 34.46C101.136 35.56 100.496 36.08 100.436 37.64C100.436 38.78 101.276 40.1 102.976 40.1C103.756 40.1 104.616 39.7 105.596 38.88V40H109.456V39.96ZM105.596 37.32C105.596 38.26 105.136 38.78 104.476 38.78C103.756 38.78 103.116 38.02 103.116 37C103.116 35.96 103.396 35.42 103.976 34.86C104.276 34.56 104.816 34.1 105.596 33.48V37.32ZM117.314 32.54C117.054 30.62 115.954 30 114.274 30H109.634V30.04C110.574 30.52 110.694 31.16 110.694 32.44V37.56C110.694 38.84 110.574 39.48 109.634 39.96V40H114.594V39.96C113.654 39.48 113.534 38.84 113.534 37.56V30.56H113.574C114.514 30.56 114.994 31.94 114.914 33.86L117.314 32.54ZM126.311 39.96C125.371 39.48 125.251 38.84 125.251 37.56V32.2C125.251 30.82 124.451 29.86 122.611 29.86C121.731 29.86 120.651 29.98 119.371 30.2L117.711 32.42L117.751 32.46L118.291 32.1C119.791 31.12 120.651 30.58 121.351 30.58C122.071 30.58 122.471 31.12 122.471 31.84C122.391 32.96 121.851 33.32 119.911 34.46C117.991 35.56 117.351 36.08 117.291 37.64C117.291 38.78 118.131 40.1 119.831 40.1C120.611 40.1 121.471 39.7 122.451 38.88V40H126.311V39.96ZM122.451 37.32C122.451 38.26 121.991 38.78 121.331 38.78C120.611 38.78 119.971 38.02 119.971 37C119.971 35.96 120.251 35.42 120.831 34.86C121.131 34.56 121.671 34.1 122.451 33.48V37.32ZM130.444 33C130.364 37.62 134.364 40.28 138.004 40.24C139.304 40.24 140.744 39.66 142.484 38.8V35.24C142.484 34.14 142.924 33.34 143.784 32.84V32.8H137.944V32.84C138.884 33.26 139.444 34.18 139.444 35.24V39.34C139.284 39.36 139.104 39.38 138.884 39.38C136.304 39.48 133.724 35.68 133.804 31.68C133.804 28.2 135.384 26.5 137.184 26.5C139.124 26.5 140.984 27.9 142.524 30.56H142.564L142.304 25.76C142.004 25.84 141.624 25.88 141.124 25.88C140.664 25.88 140.184 25.86 139.684 25.82C138.904 25.76 138.224 25.74 137.644 25.74C134.184 25.7 130.344 28.4 130.444 33ZM153.499 39.96C152.559 39.48 152.439 38.84 152.439 37.56V32.2C152.439 30.82 151.639 29.86 149.799 29.86C148.919 29.86 147.839 29.98 146.559 30.2L144.899 32.42L144.939 32.46L145.479 32.1C146.979 31.12 147.839 30.58 148.539 30.58C149.259 30.58 149.659 31.12 149.659 31.84C149.579 32.96 149.039 33.32 147.099 34.46C145.179 35.56 144.539 36.08 144.479 37.64C144.479 38.78 145.319 40.1 147.019 40.1C147.799 40.1 148.659 39.7 149.639 38.88V40H153.499V39.96ZM149.639 37.32C149.639 38.26 149.179 38.78 148.519 38.78C147.799 38.78 147.159 38.02 147.159 37C147.159 35.96 147.439 35.42 148.019 34.86C148.319 34.56 148.859 34.1 149.639 33.48V37.32ZM158.718 40.02C159.178 40.02 159.558 40.02 159.818 40V39.96C157.718 38.88 157.518 38.38 157.478 36.66V30.68H159.238V30H157.478V26.64H157.438C156.478 28.5 154.918 29.88 153.498 30.06V30.68H154.638V36.32C154.638 37.28 154.698 38 154.818 38.46C154.958 38.92 155.298 39.3 155.878 39.6C156.458 39.88 157.418 40.02 158.718 40.02ZM167.764 36.66C166.944 37.46 165.964 37.94 165.104 37.94C163.604 37.94 162.304 36.84 162.124 34.46H167.964C167.884 31.52 166.144 29.82 164.084 29.82C161.904 29.78 159.404 31.72 159.464 35.02C159.464 38.44 161.664 40.18 163.824 40.18C164.804 40.18 165.624 39.84 166.324 39.14C167.024 38.44 167.504 37.62 167.804 36.68L167.764 36.66ZM162.104 33.78C162.104 31.54 162.984 30.38 163.684 30.38C164.504 30.38 165.184 31.78 165.324 33.78H162.104Z" fill="white"/>
<path d="M21.12 70V58.64H23.072V70H21.12ZM25.1795 70V61.632H26.8595L26.9235 62.784C27.1688 62.3573 27.5102 62.0213 27.9475 61.776C28.3955 61.52 28.9075 61.392 29.4835 61.392C30.1128 61.392 30.6568 61.5413 31.1155 61.84C31.5848 62.1387 31.9475 62.56 32.2035 63.104C32.4595 63.648 32.5875 64.288 32.5875 65.024V70H30.7475V65.232C30.7475 64.5493 30.5928 64.016 30.2835 63.632C29.9848 63.248 29.5635 63.056 29.0195 63.056C28.6355 63.056 28.2888 63.1467 27.9795 63.328C27.6808 63.5093 27.4462 63.7547 27.2755 64.064C27.1048 64.3733 27.0195 64.7307 27.0195 65.136V70H25.1795ZM38.1061 70.24C37.5515 70.24 37.0341 70.128 36.5541 69.904C36.0848 69.68 35.6741 69.3707 35.3221 68.976C34.9701 68.5813 34.6928 68.1173 34.4901 67.584C34.2981 67.0507 34.2021 66.4747 34.2021 65.856C34.2021 65.2267 34.3035 64.64 34.5061 64.096C34.7088 63.552 34.9915 63.0773 35.3541 62.672C35.7168 62.2667 36.1381 61.952 36.6181 61.728C37.1088 61.504 37.6368 61.392 38.2021 61.392C38.7568 61.392 39.2635 61.5093 39.7221 61.744C40.1808 61.9787 40.5595 62.3093 40.8581 62.736V58.096H42.6981V70H41.0181L40.9381 68.656C40.6395 69.1467 40.2448 69.536 39.7541 69.824C39.2635 70.1013 38.7141 70.24 38.1061 70.24ZM38.4901 68.576C38.9488 68.576 39.3595 68.4587 39.7221 68.224C40.0848 67.9787 40.3675 67.648 40.5701 67.232C40.7835 66.816 40.8901 66.3467 40.8901 65.824C40.8901 65.2907 40.7835 64.816 40.5701 64.4C40.3675 63.984 40.0848 63.6587 39.7221 63.424C39.3595 63.1787 38.9488 63.056 38.4901 63.056C38.0315 63.056 37.6208 63.1787 37.2581 63.424C36.8955 63.6587 36.6075 63.984 36.3941 64.4C36.1915 64.816 36.0901 65.2907 36.0901 65.824C36.0901 66.3467 36.1915 66.816 36.3941 67.232C36.6075 67.648 36.8955 67.9787 37.2581 68.224C37.6208 68.4587 38.0315 68.576 38.4901 68.576ZM48.5675 70.24C47.9595 70.24 47.3942 70.1333 46.8715 69.92C46.3595 69.696 45.9115 69.3867 45.5275 68.992C45.1435 68.5867 44.8448 68.1173 44.6315 67.584C44.4182 67.04 44.3115 66.448 44.3115 65.808C44.3115 65.1787 44.4182 64.5973 44.6315 64.064C44.8448 63.52 45.1435 63.0507 45.5275 62.656C45.9222 62.2507 46.3808 61.9413 46.9035 61.728C47.4368 61.504 48.0128 61.392 48.6315 61.392C49.2395 61.392 49.7995 61.504 50.3115 61.728C50.8342 61.9413 51.2875 62.2507 51.6715 62.656C52.0555 63.0507 52.3542 63.5147 52.5675 64.048C52.7808 64.5813 52.8875 65.168 52.8875 65.808C52.8875 66.448 52.7808 67.04 52.5675 67.584C52.3542 68.1173 52.0502 68.5867 51.6555 68.992C51.2715 69.3867 50.8128 69.696 50.2795 69.92C49.7568 70.1333 49.1862 70.24 48.5675 70.24ZM48.5995 68.576C49.0582 68.576 49.4688 68.4587 49.8315 68.224C50.1942 67.9787 50.4768 67.648 50.6795 67.232C50.8928 66.816 50.9995 66.3413 50.9995 65.808C50.9995 65.2747 50.8928 64.8053 50.6795 64.4C50.4768 63.984 50.1942 63.6587 49.8315 63.424C49.4688 63.1787 49.0582 63.056 48.5995 63.056C48.1408 63.056 47.7302 63.1787 47.3675 63.424C47.0048 63.6587 46.7168 63.984 46.5035 64.4C46.3008 64.8053 46.1995 65.2747 46.1995 65.808C46.1995 66.3413 46.3008 66.816 46.5035 67.232C46.7168 67.648 47.0048 67.9787 47.3675 68.224C47.7302 68.4587 48.1408 68.576 48.5995 68.576ZM54.5076 70V61.632H56.1876L56.2516 62.784C56.497 62.3573 56.8383 62.0213 57.2756 61.776C57.7236 61.52 58.2356 61.392 58.8116 61.392C59.441 61.392 59.985 61.5413 60.4436 61.84C60.913 62.1387 61.2756 62.56 61.5316 63.104C61.7876 63.648 61.9156 64.288 61.9156 65.024V70H60.0756V65.232C60.0756 64.5493 59.921 64.016 59.6116 63.632C59.313 63.248 58.8916 63.056 58.3476 63.056C57.9636 63.056 57.617 63.1467 57.3076 63.328C57.009 63.5093 56.7743 63.7547 56.6036 64.064C56.433 64.3733 56.3476 64.7307 56.3476 65.136V70H54.5076ZM67.7863 70.24C67.1676 70.24 66.5969 70.1333 66.0743 69.92C65.5623 69.696 65.1143 69.3867 64.7303 68.992C64.3463 68.5973 64.0476 68.1333 63.8343 67.6C63.6316 67.056 63.5303 66.4587 63.5303 65.808C63.5303 65.1787 63.6316 64.5973 63.8343 64.064C64.0476 63.5307 64.3356 63.0667 64.6983 62.672C65.0716 62.2667 65.5089 61.952 66.0103 61.728C66.5116 61.504 67.0556 61.392 67.6423 61.392C68.2289 61.392 68.7623 61.4987 69.2423 61.712C69.7329 61.9147 70.1543 62.208 70.5063 62.592C70.8689 62.976 71.1463 63.4347 71.3383 63.968C71.5303 64.4907 71.6263 65.072 71.6263 65.712V66.256H65.4343C65.4876 66.7467 65.6156 67.1733 65.8183 67.536C66.0316 67.888 66.3036 68.16 66.6343 68.352C66.9649 68.544 67.3489 68.64 67.7863 68.64C68.6609 68.64 69.3436 68.2507 69.8343 67.472L71.4503 68.096C71.2583 68.5333 70.9756 68.9173 70.6023 69.248C70.2396 69.568 69.8129 69.8133 69.3223 69.984C68.8423 70.1547 68.3303 70.24 67.7863 70.24ZM67.6423 62.88C67.2689 62.88 66.9329 62.9653 66.6343 63.136C66.3463 63.3067 66.1009 63.5467 65.8983 63.856C65.6956 64.1653 65.5569 64.528 65.4823 64.944H69.7063C69.6423 64.528 69.5196 64.1653 69.3383 63.856C69.1569 63.5467 68.9169 63.3067 68.6183 63.136C68.3303 62.9653 68.0049 62.88 67.6423 62.88ZM76.1216 70.24C75.5776 70.24 75.071 70.1493 74.6016 69.968C74.143 69.7867 73.7483 69.5307 73.4176 69.2C73.0976 68.8587 72.8683 68.4587 72.7296 68L74.3936 67.568C74.5323 67.9307 74.7563 68.2133 75.0656 68.416C75.375 68.6187 75.7323 68.72 76.1376 68.72C76.5536 68.72 76.895 68.624 77.1616 68.432C77.4283 68.2293 77.5616 67.9733 77.5616 67.664C77.5616 67.3973 77.455 67.1733 77.2416 66.992C77.0283 66.8107 76.6816 66.6773 76.2016 66.592L75.6736 66.496C74.7776 66.336 74.1003 66.048 73.6416 65.632C73.1936 65.216 72.9696 64.6827 72.9696 64.032C72.9696 63.5093 73.103 63.0507 73.3696 62.656C73.6363 62.2613 74.0043 61.952 74.4736 61.728C74.943 61.504 75.4816 61.392 76.0896 61.392C76.6123 61.392 77.0923 61.4827 77.5296 61.664C77.967 61.8453 78.335 62.1013 78.6336 62.432C78.9323 62.7627 79.1456 63.152 79.2736 63.6L77.6256 64C77.4976 63.6587 77.295 63.392 77.0176 63.2C76.751 62.9973 76.4363 62.896 76.0736 62.896C75.7003 62.896 75.391 62.992 75.1456 63.184C74.9003 63.3653 74.7776 63.6 74.7776 63.888C74.7776 64.1333 74.8843 64.336 75.0976 64.496C75.3216 64.656 75.695 64.784 76.2176 64.88L76.7456 64.976C77.599 65.1253 78.255 65.4187 78.7136 65.856C79.1723 66.2933 79.4016 66.8373 79.4016 67.488C79.4016 67.8827 79.3216 68.2507 79.1616 68.592C79.0016 68.9227 78.7723 69.216 78.4736 69.472C78.1856 69.7173 77.839 69.904 77.4336 70.032C77.039 70.1707 76.6016 70.24 76.1216 70.24ZM82.9459 59.296C82.9459 59.4987 82.8925 59.6853 82.7859 59.856C82.6899 60.0267 82.5565 60.1653 82.3859 60.272C82.2152 60.368 82.0285 60.416 81.8259 60.416C81.6232 60.416 81.4365 60.368 81.2659 60.272C81.0952 60.1653 80.9565 60.0267 80.8499 59.856C80.7539 59.6853 80.7059 59.4987 80.7059 59.296C80.7059 59.0933 80.7539 58.9067 80.8499 58.736C80.9565 58.5653 81.0952 58.432 81.2659 58.336C81.4365 58.2293 81.6232 58.176 81.8259 58.176C82.0285 58.176 82.2152 58.2293 82.3859 58.336C82.5565 58.432 82.6899 58.5653 82.7859 58.736C82.8925 58.9067 82.9459 59.0933 82.9459 59.296ZM80.9139 70V61.632H82.7539V70H80.9139ZM87.302 70.24C86.8753 70.24 86.4807 70.176 86.118 70.048C85.766 69.92 85.4567 69.7387 85.19 69.504C84.9233 69.2693 84.7153 68.992 84.566 68.672C84.4167 68.352 84.342 68 84.342 67.616C84.342 67.0827 84.4807 66.6187 84.758 66.224C85.046 65.8187 85.446 65.504 85.958 65.28C86.47 65.056 87.0673 64.944 87.75 64.944C88.1233 64.944 88.4807 64.9813 88.822 65.056C89.1633 65.12 89.4887 65.216 89.798 65.344V64.816C89.798 64.4427 89.7287 64.1173 89.59 63.84C89.4513 63.552 89.254 63.328 88.998 63.168C88.742 63.008 88.4327 62.928 88.07 62.928C87.686 62.928 87.3393 63.0293 87.03 63.232C86.7207 63.4347 86.4913 63.7173 86.342 64.08L84.646 63.696C84.774 63.2267 85.0033 62.8213 85.334 62.48C85.6753 62.1387 86.0807 61.872 86.55 61.68C87.03 61.488 87.5473 61.392 88.102 61.392C88.6247 61.392 89.0993 61.4773 89.526 61.648C89.9633 61.8187 90.3367 62.0587 90.646 62.368C90.9553 62.6773 91.1953 63.0453 91.366 63.472C91.5367 63.8987 91.622 64.3733 91.622 64.896V70H89.942L89.878 68.896C89.654 69.3013 89.318 69.6267 88.87 69.872C88.422 70.1173 87.8993 70.24 87.302 70.24ZM86.198 67.536C86.198 67.7707 86.262 67.984 86.39 68.176C86.518 68.3573 86.694 68.5013 86.918 68.608C87.1527 68.7147 87.4247 68.768 87.734 68.768C88.1287 68.768 88.4807 68.6827 88.79 68.512C89.0993 68.3413 89.3447 68.112 89.526 67.824C89.7073 67.5253 89.798 67.1893 89.798 66.816V66.624C89.5207 66.5067 89.2327 66.416 88.934 66.352C88.646 66.2773 88.3473 66.24 88.038 66.24C87.4833 66.24 87.0353 66.3573 86.694 66.592C86.3633 66.8267 86.198 67.1413 86.198 67.536Z" fill="white"/>
<g clip-path="url(#clip0_1_139)">
<path d="M217.91 31.7306C217.763 31.2778 217.369 30.9479 216.896 30.8795L212.9 30.3015L211.113 26.698C210.901 26.2712 210.464 26.001 209.986 26.001C209.508 26.001 209.071 26.2712 208.859 26.6981L207.072 30.3015L203.076 30.8795C202.602 30.9479 202.209 31.2778 202.061 31.7306C201.913 32.1833 202.037 32.6803 202.379 33.0125L205.271 35.8174L204.588 39.7784C204.508 40.2476 204.701 40.7218 205.088 41.0015C205.307 41.1598 205.566 41.2403 205.827 41.2403C206.027 41.2403 206.228 41.1929 206.412 41.0966L209.986 39.2264L213.56 41.0966C213.984 41.3179 214.497 41.2812 214.884 41.0014C215.271 40.7217 215.464 40.2475 215.384 39.7783L214.701 35.8172L217.592 33.0124C217.935 32.6802 218.058 32.1832 217.91 31.7306Z" fill="#FFD751"/>
<path d="M217.911 31.7295C217.763 31.2768 217.37 30.9469 216.896 30.8785L212.9 30.3007L211.113 26.697C210.901 26.2702 210.464 26 209.986 26V39.2255L213.561 41.0956C213.984 41.3168 214.497 41.2802 214.884 41.0003C215.271 40.7206 215.465 40.2464 215.384 39.7773L214.701 35.8163L217.593 33.0113C217.935 32.6792 218.058 32.1822 217.911 31.7295Z" fill="#F4C82A"/>
<path d="M235.911 31.7306C235.763 31.2778 235.37 30.9479 234.896 30.8795L230.9 30.3015L229.113 26.698C228.901 26.2712 228.464 26.001 227.986 26.001C227.508 26.001 227.071 26.2712 226.859 26.6981L225.072 30.3015L221.076 30.8795C220.603 30.9479 220.209 31.2778 220.062 31.7306C219.914 32.1833 220.037 32.6803 220.38 33.0125L223.271 35.8174L222.589 39.7784C222.508 40.2476 222.702 40.7218 223.088 41.0015C223.307 41.1598 223.567 41.2403 223.827 41.2403C224.027 41.2403 224.228 41.1929 224.412 41.0966L227.986 39.2264L231.561 41.0966C231.984 41.3179 232.497 41.2812 232.884 41.0014C233.271 40.7217 233.465 40.2475 233.384 39.7783L232.701 35.8172L235.593 33.0124C235.935 32.6802 236.058 32.1832 235.911 31.7306Z" fill="#FFD751"/>
<path d="M235.911 31.7295C235.763 31.2768 235.37 30.9469 234.897 30.8785L230.9 30.3007L229.113 26.697C228.902 26.2702 228.465 26 227.986 26V39.2255L231.561 41.0956C231.984 41.3168 232.497 41.2802 232.884 41.0003C233.271 40.7206 233.465 40.2464 233.384 39.7773L232.702 35.8163L235.593 33.0113C235.936 32.6792 236.059 32.1822 235.911 31.7295Z" fill="#F4C82A"/>
<path d="M253.911 31.7306C253.763 31.2778 253.37 30.9479 252.897 30.8795L248.9 30.3015L247.113 26.698C246.901 26.2712 246.465 26.001 245.986 26.001C245.508 26.001 245.071 26.2712 244.86 26.6981L243.073 30.3015L239.076 30.8795C238.603 30.9479 238.21 31.2778 238.062 31.7306C237.914 32.1833 238.037 32.6803 238.38 33.0125L241.272 35.8174L240.589 39.7784C240.508 40.2476 240.702 40.7218 241.089 41.0015C241.308 41.1598 241.567 41.2403 241.827 41.2403C242.027 41.2403 242.228 41.1929 242.412 41.0966L245.986 39.2264L249.561 41.0966C249.984 41.3179 250.497 41.2812 250.884 41.0014C251.271 40.7217 251.465 40.2475 251.384 39.7783L250.701 35.8172L253.593 33.0124C253.935 32.6802 254.059 32.1832 253.911 31.7306Z" fill="#FFD751"/>
<path d="M253.911 31.7295C253.763 31.2768 253.37 30.9469 252.897 30.8785L248.901 30.3007L247.113 26.697C246.902 26.2702 246.465 26 245.987 26V39.2255L249.561 41.0956C249.985 41.3168 250.498 41.2802 250.885 41.0003C251.272 40.7206 251.465 40.2464 251.384 39.7773L250.702 35.8163L253.593 33.0113C253.936 32.6792 254.059 32.1822 253.911 31.7295Z" fill="#F4C82A"/>
<path d="M271.911 31.7306C271.763 31.2778 271.37 30.9479 270.897 30.8795L266.901 30.3015L265.113 26.698C264.902 26.2712 264.465 26.001 263.987 26.001C263.508 26.001 263.072 26.2712 262.86 26.6981L261.073 30.3015L257.076 30.8795C256.603 30.9479 256.21 31.2778 256.062 31.7306C255.914 32.1833 256.038 32.6803 256.38 33.0125L259.272 35.8174L258.589 39.7784C258.508 40.2476 258.702 40.7218 259.089 41.0015C259.308 41.1598 259.567 41.2403 259.828 41.2403C260.028 41.2403 260.228 41.1929 260.412 41.0966L263.987 39.2264L267.561 41.0966C267.984 41.3179 268.497 41.2812 268.884 41.0014C269.271 40.7217 269.465 40.2475 269.384 39.7783L268.702 35.8172L271.593 33.0124C271.936 32.6802 272.059 32.1832 271.911 31.7306Z" fill="#FFD751"/>
<path d="M271.911 31.7295C271.764 31.2768 271.37 30.9469 270.897 30.8785L266.901 30.3007L265.114 26.697C264.902 26.2702 264.465 26 263.987 26V39.2255L267.562 41.0956C267.985 41.3168 268.498 41.2802 268.885 41.0003C269.272 40.7206 269.466 40.2464 269.385 39.7773L268.702 35.8163L271.594 33.0113C271.936 32.6792 272.059 32.1822 271.911 31.7295Z" fill="#F4C82A"/>
<path d="M289.911 31.7306C289.764 31.2778 289.37 30.9479 288.897 30.8795L284.901 30.3015L283.114 26.698C282.902 26.2712 282.465 26.001 281.987 26.001C281.509 26.001 281.072 26.2712 280.86 26.6981L279.073 30.3015L275.077 30.8795C274.603 30.9479 274.21 31.2778 274.062 31.7306C273.914 32.1833 274.038 32.6803 274.38 33.0125L277.272 35.8174L276.589 39.7784C276.508 40.2476 276.702 40.7218 277.089 41.0015C277.308 41.1598 277.567 41.2403 277.828 41.2403C278.028 41.2403 278.229 41.1929 278.412 41.0966L281.987 39.2264L285.561 41.0966C285.985 41.3179 286.498 41.2812 286.885 41.0014C287.272 40.7217 287.465 40.2475 287.385 39.7783L286.702 35.8172L289.593 33.0124C289.936 32.6802 290.059 32.1832 289.911 31.7306Z" fill="#FFD751"/>
<path d="M289.912 31.7295C289.764 31.2768 289.371 30.9469 288.897 30.8785L284.901 30.3007L283.114 26.697C282.902 26.2702 282.465 26 281.987 26V39.2255L285.562 41.0956C285.985 41.3168 286.498 41.2802 286.885 41.0003C287.272 40.7206 287.466 40.2464 287.385 39.7773L286.702 35.8163L289.594 33.0113C289.936 32.6792 290.059 32.1822 289.912 31.7295Z" fill="#F4C82A"/>
</g>
<defs>
<filter id="filter0_b_1_139" x="-20" y="-20" width="350" height="140" filterUnits="userSpaceOnUse" color-interpolation-filters="sRGB">
<feFlood flood-opacity="0" result="BackgroundImageFix"/>
<feGaussianBlur in="BackgroundImageFix" stdDeviation="10"/>
<feComposite in2="SourceAlpha" operator="in" result="effect1_backgroundBlur_1_139"/>
<feBlend mode="normal" in="SourceGraphic" in2="effect1_backgroundBlur_1_139" result="shape"/>
</filter>
<linearGradient id="paint0_linear_1_139" x1="1.01572e-05" y1="-0.314828" x2="307.913" y2="105.744" gradientUnits="userSpaceOnUse">
<stop stop-color="#989898"/>
<stop offset="1" stop-color="white" stop-opacity="0"/>
</linearGradient>
<clipPath id="clip0_1_139">
<rect width="88" height="15" fill="white" transform="translate(202 26)"/>
</clipPath>
</defs>
</svg>
