<svg width="310" height="100" viewBox="0 0 310 100" fill="none" xmlns="http://www.w3.org/2000/svg">
<g filter="url(#filter0_b_1_165)">
<rect width="310" height="100" rx="10" fill="#002248" fill-opacity="0.3"/>
<rect x="0.5" y="0.5" width="309" height="99" rx="9.5" stroke="url(#paint0_linear_1_165)"/>
</g>
<path d="M239.012 73.8V71.16C238.319 71.0667 237.679 70.8667 237.092 70.56C236.519 70.2533 236.025 69.8467 235.612 69.34C235.199 68.8333 234.892 68.2467 234.692 67.58L236.832 67.1C237.032 67.66 237.312 68.12 237.672 68.48C238.045 68.8267 238.492 69.06 239.012 69.18V64.92C237.745 64.6933 236.759 64.24 236.052 63.56C235.359 62.88 235.012 62.04 235.012 61.04C235.012 60.32 235.179 59.6733 235.512 59.1C235.859 58.5267 236.332 58.06 236.932 57.7C237.532 57.3267 238.225 57.1 239.012 57.02V54.6H240.352V57.04C241.019 57.12 241.625 57.3133 242.172 57.62C242.719 57.9267 243.179 58.3267 243.552 58.82C243.925 59.3133 244.192 59.8867 244.352 60.54L242.252 61.02C242.065 60.4733 241.812 60.04 241.492 59.72C241.185 59.3867 240.805 59.1667 240.352 59.06V62.94L240.692 63C241.945 63.2267 242.899 63.6867 243.552 64.38C244.219 65.0733 244.552 65.9333 244.552 66.96C244.552 67.7467 244.372 68.4467 244.012 69.06C243.652 69.66 243.159 70.1467 242.532 70.52C241.905 70.88 241.179 71.1 240.352 71.18V73.8H239.012ZM237.252 60.84C237.252 61.24 237.379 61.6 237.632 61.92C237.899 62.2267 238.359 62.4733 239.012 62.66V59.02C238.465 59.1133 238.032 59.32 237.712 59.64C237.405 59.96 237.252 60.36 237.252 60.84ZM242.312 67.18C242.312 66.6867 242.145 66.2733 241.812 65.94C241.492 65.5933 241.005 65.34 240.352 65.18V69.22C240.939 69.1267 241.412 68.9 241.772 68.54C242.132 68.18 242.312 67.7267 242.312 67.18ZM249.747 71V59.74L246.747 61.42L245.927 59.48L250.107 57.2H252.067V71H249.747ZM255.1 71V69.24C255.78 68.68 256.373 68.18 256.88 67.74C257.4 67.2867 257.86 66.8733 258.26 66.5C258.66 66.1267 259.033 65.7667 259.38 65.42C259.98 64.82 260.46 64.2933 260.82 63.84C261.193 63.3867 261.467 62.96 261.64 62.56C261.813 62.16 261.9 61.7467 261.9 61.32C261.9 60.8533 261.807 60.4467 261.62 60.1C261.433 59.7533 261.173 59.4867 260.84 59.3C260.52 59.1 260.14 59 259.7 59C259.1 59 258.58 59.1933 258.14 59.58C257.7 59.9533 257.393 60.4733 257.22 61.14L255.02 60.7C255.193 59.94 255.5 59.2733 255.94 58.7C256.393 58.1267 256.947 57.6867 257.6 57.38C258.267 57.06 258.987 56.9 259.76 56.9C260.413 56.9 261.013 57.0133 261.56 57.24C262.107 57.4533 262.58 57.76 262.98 58.16C263.393 58.5467 263.707 59.0067 263.92 59.54C264.147 60.06 264.26 60.6333 264.26 61.26C264.26 61.8333 264.153 62.3933 263.94 62.94C263.727 63.4867 263.387 64.0533 262.92 64.64C262.467 65.2267 261.88 65.8733 261.16 66.58C260.413 67.3133 259.553 68.0867 258.58 68.9H264.5V71H255.1ZM271.588 71.3C270.788 71.3 270.068 71.14 269.428 70.82C268.788 70.4867 268.241 70.0067 267.788 69.38C267.334 68.7533 266.988 68 266.748 67.12C266.521 66.24 266.408 65.2533 266.408 64.16C266.408 63.0267 266.528 62.0133 266.768 61.12C267.021 60.2267 267.381 59.4667 267.848 58.84C268.314 58.2133 268.874 57.7333 269.528 57.4C270.181 57.0667 270.908 56.9 271.708 56.9C272.521 56.9 273.241 57.0667 273.868 57.4C274.508 57.7333 275.048 58.2133 275.488 58.84C275.928 59.4667 276.261 60.22 276.488 61.1C276.728 61.9667 276.848 62.9467 276.848 64.04C276.848 65.16 276.728 66.1667 276.488 67.06C276.248 67.9533 275.894 68.72 275.428 69.36C274.974 69.9867 274.421 70.4667 273.768 70.8C273.128 71.1333 272.401 71.3 271.588 71.3ZM271.628 69.14C272.521 69.14 273.214 68.7067 273.708 67.84C274.214 66.96 274.468 65.7133 274.468 64.1C274.468 62.4867 274.214 61.2467 273.708 60.38C273.214 59.5 272.521 59.06 271.628 59.06C270.734 59.06 270.034 59.5 269.528 60.38C269.034 61.2467 268.788 62.4867 268.788 64.1C268.788 65.7133 269.034 66.96 269.528 67.84C270.034 68.7067 270.734 69.14 271.628 69.14ZM283.834 71.3C283.034 71.3 282.314 71.14 281.674 70.82C281.034 70.4867 280.487 70.0067 280.034 69.38C279.581 68.7533 279.234 68 278.994 67.12C278.767 66.24 278.654 65.2533 278.654 64.16C278.654 63.0267 278.774 62.0133 279.014 61.12C279.267 60.2267 279.627 59.4667 280.094 58.84C280.561 58.2133 281.121 57.7333 281.774 57.4C282.427 57.0667 283.154 56.9 283.954 56.9C284.767 56.9 285.487 57.0667 286.114 57.4C286.754 57.7333 287.294 58.2133 287.734 58.84C288.174 59.4667 288.507 60.22 288.734 61.1C288.974 61.9667 289.094 62.9467 289.094 64.04C289.094 65.16 288.974 66.1667 288.734 67.06C288.494 67.9533 288.141 68.72 287.674 69.36C287.221 69.9867 286.667 70.4667 286.014 70.8C285.374 71.1333 284.647 71.3 283.834 71.3ZM283.874 69.14C284.767 69.14 285.461 68.7067 285.954 67.84C286.461 66.96 286.714 65.7133 286.714 64.1C286.714 62.4867 286.461 61.2467 285.954 60.38C285.461 59.5 284.767 59.06 283.874 59.06C282.981 59.06 282.281 59.5 281.774 60.38C281.281 61.2467 281.034 62.4867 281.034 64.1C281.034 65.7133 281.281 66.96 281.774 67.84C282.281 68.7067 282.981 69.14 283.874 69.14Z" fill="white"/>
<path d="M31.86 36.12C31.86 34.22 30.6 32.82 28.26 32.32C30.12 31.78 31.12 30.52 31.12 29.06C31.12 27.24 29.7 26 27.62 26H20.36V26.04C21.3 26.46 21.86 27.38 21.86 28.44V37.56C21.86 38.62 21.3 39.54 20.36 39.96V40H27.5C30.14 40 31.86 38.54 31.86 36.12ZM25.48 26.66C26.98 26.66 28.26 27.84 28.26 29.74C28.26 31.52 27.36 32.04 26.06 32.04H24.98V26.66H25.48ZM28.76 36.52C28.76 38.62 27.76 39.3 26.3 39.3H24.98V32.76H25.38C27.44 32.76 28.76 34.48 28.76 36.52ZM42.4089 39.96C41.5089 39.48 41.3489 38.84 41.3489 37.56V30H37.6289V30.04C38.3689 30.46 38.5089 31.16 38.5089 32.44V38.32C37.9889 38.66 37.5089 38.84 37.0689 38.84C36.4489 38.84 36.1689 38.38 36.1689 37.68V30H32.2689V30.04C33.2089 30.52 33.3289 31.16 33.3289 32.44V38.46C33.3289 39.44 33.8489 40.12 35.1289 40.12C36.2489 40.12 37.4689 39.6 38.5089 38.98V40H42.4089V39.96ZM52.4628 39.96C51.5228 39.48 51.4028 38.84 51.4028 37.56V26H47.5028V26.04C48.4428 26.52 48.5628 27.16 48.5628 28.44V30H48.1028C45.5628 29.98 42.7828 31.72 42.8428 35.3C42.8428 38.42 44.8028 40 47.8228 40H52.4628V39.96ZM48.5228 39.42C47.0428 39.42 45.7628 36.94 45.7628 33.84C45.7628 31.1 46.6428 30.58 48.0028 30.58H48.5628V39.42H48.5228ZM62.5019 39.96C61.5619 39.48 61.4419 38.84 61.4419 37.56V26H57.5419V26.04C58.4819 26.52 58.6019 27.16 58.6019 28.44V30H58.1419C55.6019 29.98 52.8219 31.72 52.8819 35.3C52.8819 38.42 54.8419 40 57.8619 40H62.5019V39.96ZM58.5619 39.42C57.0819 39.42 55.8019 36.94 55.8019 33.84C55.8019 31.1 56.6819 30.58 58.0419 30.58H58.6019V39.42H58.5619ZM72.8991 39.96C71.9591 39.48 71.8391 38.84 71.8391 37.56V31.54C71.8391 30.56 71.2991 29.88 70.0391 29.88C68.8991 29.88 67.6591 30.4 66.6391 31.04V26H62.7391V26.04C63.6791 26.52 63.7991 27.16 63.7991 28.44V37.56C63.7991 38.84 63.6791 39.48 62.7391 39.96V40H67.5191V39.96C66.7791 39.54 66.6391 38.84 66.6391 37.56V31.68C67.1791 31.3 67.6791 31.1 68.0991 31.1C68.7191 31.1 68.9991 31.64 68.9991 32.36V37.56C68.9991 38.78 68.8191 39.54 68.0991 39.96V40H72.8991V39.96ZM73.2469 40H78.2069V39.96C77.2669 39.48 77.1469 38.84 77.1469 37.56V30H73.2469V30.04C74.1869 30.52 74.3069 31.16 74.3069 32.44V37.56C74.3069 38.84 74.1869 39.48 73.2469 39.96V40ZM74.0469 27.38C74.0469 28.24 74.7669 28.92 75.6469 28.92C76.5269 28.92 77.2469 28.24 77.2469 27.38C77.2469 26.56 76.5269 25.86 75.6469 25.86C74.7669 25.86 74.0469 26.56 74.0469 27.38ZM79.6584 39.76C81.0384 40.06 81.9984 40.22 83.0584 40.22C84.0584 40.22 84.9184 39.96 85.6384 39.44C86.3784 38.92 86.7384 38.12 86.7384 37.04C86.7384 35.22 85.6384 34.32 83.3984 33.58C81.9784 33.1 81.4584 32.9 81.0584 32.52C80.8584 32.34 80.7584 32.1 80.7584 31.82C80.7584 31.04 81.4984 30.52 82.3984 30.52C83.8384 30.52 84.9384 31.54 86.1984 33.68H86.2384L86.0784 30.4C84.6184 30.02 83.4784 29.82 82.6784 29.82C81.6584 29.82 80.7784 30.08 80.0384 30.62C79.2984 31.14 78.9384 31.92 78.9384 32.94C78.9384 34.44 79.6384 35.28 81.9384 36.08C83.4784 36.62 84.1184 36.84 84.5784 37.3C84.8184 37.52 84.9384 37.78 84.9384 38.08C84.9384 39.02 84.2184 39.5 83.2584 39.5C82.2784 39.5 81.4584 39.12 80.7984 38.38C80.1384 37.62 79.5384 36.7 78.9984 35.62H78.9784L79.2184 39.66C79.3384 39.68 79.4784 39.7 79.6584 39.76ZM92.4489 40.02C92.9089 40.02 93.2889 40.02 93.5489 40V39.96C91.4489 38.88 91.2489 38.38 91.2089 36.66V30.68H92.9689V30H91.2089V26.64H91.1689C90.2089 28.5 88.6489 29.88 87.2289 30.06V30.68H88.3689V36.32C88.3689 37.28 88.4289 38 88.5489 38.46C88.6889 38.92 89.0289 39.3 89.6089 39.6C90.1889 39.88 91.1489 40.02 92.4489 40.02ZM97.9983 39.76C99.3783 40.06 100.338 40.22 101.398 40.22C102.398 40.22 103.258 39.96 103.978 39.44C104.718 38.92 105.078 38.12 105.078 37.04C105.078 35.22 103.978 34.32 101.738 33.58C100.318 33.1 99.7983 32.9 99.3983 32.52C99.1983 32.34 99.0983 32.1 99.0983 31.82C99.0983 31.04 99.8383 30.52 100.738 30.52C102.178 30.52 103.278 31.54 104.538 33.68H104.578L104.418 30.4C102.958 30.02 101.818 29.82 101.018 29.82C99.9983 29.82 99.1183 30.08 98.3783 30.62C97.6383 31.14 97.2783 31.92 97.2783 32.94C97.2783 34.44 97.9783 35.28 100.278 36.08C101.818 36.62 102.458 36.84 102.918 37.3C103.158 37.52 103.278 37.78 103.278 38.08C103.278 39.02 102.558 39.5 101.598 39.5C100.618 39.5 99.7983 39.12 99.1383 38.38C98.4783 37.62 97.8783 36.7 97.3383 35.62H97.3183L97.5583 39.66C97.6783 39.68 97.8183 39.7 97.9983 39.76ZM115.712 39.96C114.772 39.48 114.652 38.84 114.652 37.56V31.54C114.652 30.56 114.112 29.88 112.852 29.88C111.712 29.88 110.472 30.4 109.452 31.04V26H105.552V26.04C106.492 26.52 106.612 27.16 106.612 28.44V37.56C106.612 38.84 106.492 39.48 105.552 39.96V40H110.332V39.96C109.592 39.54 109.452 38.84 109.452 37.56V31.68C109.992 31.3 110.492 31.1 110.912 31.1C111.532 31.1 111.812 31.64 111.812 32.36V37.56C111.812 38.78 111.632 39.54 110.912 39.96V40H115.712V39.96ZM123.583 32.54C123.323 30.62 122.223 30 120.543 30H115.903V30.04C116.843 30.52 116.963 31.16 116.963 32.44V37.56C116.963 38.84 116.843 39.48 115.903 39.96V40H120.863V39.96C119.923 39.48 119.803 38.84 119.803 37.56V30.56H119.843C120.783 30.56 121.263 31.94 121.183 33.86L123.583 32.54ZM123.677 40H128.637V39.96C127.697 39.48 127.577 38.84 127.577 37.56V30H123.677V30.04C124.617 30.52 124.737 31.16 124.737 32.44V37.56C124.737 38.84 124.617 39.48 123.677 39.96V40ZM124.477 27.38C124.477 28.24 125.197 28.92 126.077 28.92C126.957 28.92 127.677 28.24 127.677 27.38C127.677 26.56 126.957 25.86 126.077 25.86C125.197 25.86 124.477 26.56 124.477 27.38ZM139.188 39.96C138.248 39.48 138.128 38.84 138.128 37.56V31.54C138.128 30.56 137.588 29.88 136.328 29.88C135.188 29.88 133.948 30.4 132.928 31.04V30H129.028V30.04C129.968 30.52 130.088 31.16 130.088 32.44V37.56C130.088 38.84 129.968 39.48 129.028 39.96V40H133.808V39.96C133.068 39.54 132.928 38.84 132.928 37.56V31.68C133.468 31.3 133.968 31.1 134.388 31.1C135.008 31.1 135.288 31.64 135.288 32.36V37.56C135.288 38.78 135.108 39.54 134.388 39.96V40H139.188V39.96ZM147.901 36.66C147.081 37.46 146.101 37.94 145.241 37.94C143.741 37.94 142.441 36.84 142.261 34.46H148.101C148.021 31.52 146.281 29.82 144.221 29.82C142.041 29.78 139.541 31.72 139.601 35.02C139.601 38.44 141.801 40.18 143.961 40.18C144.941 40.18 145.761 39.84 146.461 39.14C147.161 38.44 147.641 37.62 147.941 36.68L147.901 36.66ZM142.241 33.78C142.241 31.54 143.121 30.38 143.821 30.38C144.641 30.38 145.321 31.78 145.461 33.78H142.241Z" fill="white"/>
<path d="M24.016 70V60.384H20.704V58.64H29.28V60.384H25.968V70H24.016ZM33.3956 70.24C32.7876 70.24 32.2223 70.1333 31.6996 69.92C31.1876 69.696 30.7396 69.3867 30.3556 68.992C29.9716 68.5867 29.673 68.1173 29.4596 67.584C29.2463 67.04 29.1396 66.448 29.1396 65.808C29.1396 65.1787 29.2463 64.5973 29.4596 64.064C29.673 63.52 29.9716 63.0507 30.3556 62.656C30.7503 62.2507 31.209 61.9413 31.7316 61.728C32.265 61.504 32.841 61.392 33.4596 61.392C34.0676 61.392 34.6276 61.504 35.1396 61.728C35.6623 61.9413 36.1156 62.2507 36.4996 62.656C36.8836 63.0507 37.1823 63.5147 37.3956 64.048C37.609 64.5813 37.7156 65.168 37.7156 65.808C37.7156 66.448 37.609 67.04 37.3956 67.584C37.1823 68.1173 36.8783 68.5867 36.4836 68.992C36.0996 69.3867 35.641 69.696 35.1076 69.92C34.585 70.1333 34.0143 70.24 33.3956 70.24ZM33.4276 68.576C33.8863 68.576 34.297 68.4587 34.6596 68.224C35.0223 67.9787 35.305 67.648 35.5076 67.232C35.721 66.816 35.8276 66.3413 35.8276 65.808C35.8276 65.2747 35.721 64.8053 35.5076 64.4C35.305 63.984 35.0223 63.6587 34.6596 63.424C34.297 63.1787 33.8863 63.056 33.4276 63.056C32.969 63.056 32.5583 63.1787 32.1956 63.424C31.833 63.6587 31.545 63.984 31.3316 64.4C31.129 64.8053 31.0276 65.2747 31.0276 65.808C31.0276 66.3413 31.129 66.816 31.3316 67.232C31.545 67.648 31.833 67.9787 32.1956 68.224C32.5583 68.4587 32.969 68.576 33.4276 68.576ZM39.3358 70V58.096H41.1758V65.088L44.5998 61.632H46.8398L43.0798 65.344L47.2238 70H44.8078L41.1758 65.776V70H39.3358ZM49.1276 73.328C48.861 73.328 48.6103 73.3013 48.3756 73.248C48.1516 73.1947 47.933 73.1093 47.7196 72.992L48.1196 71.536C48.237 71.5893 48.3703 71.632 48.5196 71.664C48.669 71.7067 48.813 71.728 48.9516 71.728C49.2716 71.728 49.549 71.6373 49.7836 71.456C50.029 71.2747 50.2316 70.9813 50.3916 70.576L50.6476 69.92L47.2396 61.632H49.2556L51.5116 67.888L53.5596 61.632H55.5116L51.9596 71.008C51.6503 71.808 51.261 72.3947 50.7916 72.768C50.333 73.1413 49.7783 73.328 49.1276 73.328ZM60.3644 70.24C59.7564 70.24 59.191 70.1333 58.6684 69.92C58.1564 69.696 57.7084 69.3867 57.3244 68.992C56.9404 68.5867 56.6417 68.1173 56.4284 67.584C56.215 67.04 56.1084 66.448 56.1084 65.808C56.1084 65.1787 56.215 64.5973 56.4284 64.064C56.6417 63.52 56.9404 63.0507 57.3244 62.656C57.719 62.2507 58.1777 61.9413 58.7004 61.728C59.2337 61.504 59.8097 61.392 60.4284 61.392C61.0364 61.392 61.5964 61.504 62.1084 61.728C62.631 61.9413 63.0844 62.2507 63.4684 62.656C63.8524 63.0507 64.151 63.5147 64.3644 64.048C64.5777 64.5813 64.6844 65.168 64.6844 65.808C64.6844 66.448 64.5777 67.04 64.3644 67.584C64.151 68.1173 63.847 68.5867 63.4524 68.992C63.0684 69.3867 62.6097 69.696 62.0764 69.92C61.5537 70.1333 60.983 70.24 60.3644 70.24ZM60.3964 68.576C60.855 68.576 61.2657 68.4587 61.6284 68.224C61.991 67.9787 62.2737 67.648 62.4764 67.232C62.6897 66.816 62.7964 66.3413 62.7964 65.808C62.7964 65.2747 62.6897 64.8053 62.4764 64.4C62.2737 63.984 61.991 63.6587 61.6284 63.424C61.2657 63.1787 60.855 63.056 60.3964 63.056C59.9377 63.056 59.527 63.1787 59.1644 63.424C58.8017 63.6587 58.5137 63.984 58.3004 64.4C58.0977 64.8053 57.9964 65.2747 57.9964 65.808C57.9964 66.3413 58.0977 66.816 58.3004 67.232C58.5137 67.648 58.8017 67.9787 59.1644 68.224C59.527 68.4587 59.9377 68.576 60.3964 68.576ZM66.2941 72.768L65.9101 71.696C66.3688 71.536 66.7315 71.296 66.9981 70.976C67.2755 70.6667 67.4141 70.3253 67.4141 69.952C67.4141 69.8133 67.3981 69.6853 67.3661 69.568C67.2275 69.6747 67.0675 69.728 66.8861 69.728C66.7048 69.728 66.5341 69.6853 66.3741 69.6C66.2248 69.504 66.1021 69.376 66.0061 69.216C65.9208 69.056 65.8781 68.88 65.8781 68.688C65.8781 68.496 65.9315 68.32 66.0381 68.16C66.1448 68 66.2835 67.872 66.4541 67.776C66.6355 67.68 66.8328 67.632 67.0461 67.632C67.3555 67.632 67.6328 67.728 67.8781 67.92C68.1341 68.1013 68.3315 68.352 68.4701 68.672C68.6195 68.992 68.6941 69.3493 68.6941 69.744C68.6941 70.2133 68.5928 70.6453 68.3901 71.04C68.1981 71.4453 67.9208 71.792 67.5581 72.08C67.2061 72.3787 66.7848 72.608 66.2941 72.768ZM76.5309 70.24C75.9229 70.24 75.3682 70.128 74.8669 69.904C74.3762 69.6693 73.9549 69.3387 73.6029 68.912C73.2509 68.4853 72.9842 67.9627 72.8029 67.344L74.6909 66.944C75.0642 67.968 75.6829 68.48 76.5469 68.48C76.8989 68.48 77.2029 68.3947 77.4589 68.224C77.7255 68.0427 77.9282 67.792 78.0669 67.472C78.2055 67.152 78.2749 66.7787 78.2749 66.352V58.64H80.2269V66.304C80.2269 66.8907 80.1362 67.4293 79.9549 67.92C79.7842 68.4 79.5335 68.816 79.2029 69.168C78.8829 69.5093 78.4935 69.776 78.0349 69.968C77.5869 70.1493 77.0855 70.24 76.5309 70.24ZM84.7708 70.24C84.3441 70.24 83.9494 70.176 83.5868 70.048C83.2348 69.92 82.9254 69.7387 82.6588 69.504C82.3921 69.2693 82.1841 68.992 82.0348 68.672C81.8854 68.352 81.8108 68 81.8108 67.616C81.8108 67.0827 81.9494 66.6187 82.2268 66.224C82.5148 65.8187 82.9148 65.504 83.4268 65.28C83.9388 65.056 84.5361 64.944 85.2188 64.944C85.5921 64.944 85.9494 64.9813 86.2908 65.056C86.6321 65.12 86.9574 65.216 87.2668 65.344V64.816C87.2668 64.4427 87.1974 64.1173 87.0588 63.84C86.9201 63.552 86.7228 63.328 86.4668 63.168C86.2108 63.008 85.9014 62.928 85.5388 62.928C85.1548 62.928 84.8081 63.0293 84.4988 63.232C84.1894 63.4347 83.9601 63.7173 83.8108 64.08L82.1148 63.696C82.2428 63.2267 82.4721 62.8213 82.8028 62.48C83.1441 62.1387 83.5494 61.872 84.0188 61.68C84.4988 61.488 85.0161 61.392 85.5708 61.392C86.0934 61.392 86.5681 61.4773 86.9948 61.648C87.4321 61.8187 87.8054 62.0587 88.1148 62.368C88.4241 62.6773 88.6641 63.0453 88.8348 63.472C89.0054 63.8987 89.0908 64.3733 89.0908 64.896V70H87.4108L87.3468 68.896C87.1228 69.3013 86.7868 69.6267 86.3388 69.872C85.8908 70.1173 85.3681 70.24 84.7708 70.24ZM83.6668 67.536C83.6668 67.7707 83.7308 67.984 83.8588 68.176C83.9868 68.3573 84.1628 68.5013 84.3868 68.608C84.6214 68.7147 84.8934 68.768 85.2028 68.768C85.5974 68.768 85.9494 68.6827 86.2588 68.512C86.5681 68.3413 86.8134 68.112 86.9948 67.824C87.1761 67.5253 87.2668 67.1893 87.2668 66.816V66.624C86.9894 66.5067 86.7014 66.416 86.4028 66.352C86.1148 66.2773 85.8161 66.24 85.5068 66.24C84.9521 66.24 84.5041 66.3573 84.1628 66.592C83.8321 66.8267 83.6668 67.1413 83.6668 67.536ZM91.0701 73.168V61.632H92.7501L92.8301 62.976C93.1288 62.4853 93.5235 62.1013 94.0141 61.824C94.5048 61.536 95.0541 61.392 95.6621 61.392C96.2168 61.392 96.7288 61.504 97.1981 61.728C97.6781 61.952 98.0941 62.2613 98.4461 62.656C98.7981 63.0507 99.0701 63.5147 99.2621 64.048C99.4648 64.5813 99.5661 65.1573 99.5661 65.776C99.5661 66.4053 99.4648 66.992 99.2621 67.536C99.0595 68.08 98.7768 68.5547 98.4141 68.96C98.0515 69.3653 97.6248 69.68 97.1341 69.904C96.6541 70.128 96.1315 70.24 95.5661 70.24C95.0115 70.24 94.5048 70.1227 94.0461 69.888C93.5875 69.6533 93.2088 69.3227 92.9101 68.896V73.168H91.0701ZM95.2781 68.576C95.7368 68.576 96.1475 68.4587 96.5101 68.224C96.8728 67.9787 97.1555 67.648 97.3581 67.232C97.5715 66.816 97.6781 66.3413 97.6781 65.808C97.6781 65.2747 97.5715 64.8053 97.3581 64.4C97.1555 63.984 96.8728 63.6587 96.5101 63.424C96.1475 63.1787 95.7368 63.056 95.2781 63.056C94.8195 63.056 94.4088 63.1787 94.0461 63.424C93.6835 63.6587 93.3955 63.984 93.1821 64.4C92.9795 64.8053 92.8781 65.2747 92.8781 65.808C92.8781 66.3413 92.9795 66.816 93.1821 67.232C93.3955 67.648 93.6835 67.9787 94.0461 68.224C94.4088 68.4587 94.8195 68.576 95.2781 68.576ZM103.74 70.24C103.313 70.24 102.918 70.176 102.556 70.048C102.204 69.92 101.894 69.7387 101.628 69.504C101.361 69.2693 101.153 68.992 101.004 68.672C100.854 68.352 100.78 68 100.78 67.616C100.78 67.0827 100.918 66.6187 101.196 66.224C101.484 65.8187 101.884 65.504 102.396 65.28C102.908 65.056 103.505 64.944 104.188 64.944C104.561 64.944 104.918 64.9813 105.26 65.056C105.601 65.12 105.926 65.216 106.236 65.344V64.816C106.236 64.4427 106.166 64.1173 106.028 63.84C105.889 63.552 105.692 63.328 105.436 63.168C105.18 63.008 104.87 62.928 104.508 62.928C104.124 62.928 103.777 63.0293 103.468 63.232C103.158 63.4347 102.929 63.7173 102.78 64.08L101.084 63.696C101.212 63.2267 101.441 62.8213 101.772 62.48C102.113 62.1387 102.518 61.872 102.988 61.68C103.468 61.488 103.985 61.392 104.54 61.392C105.062 61.392 105.537 61.4773 105.964 61.648C106.401 61.8187 106.774 62.0587 107.084 62.368C107.393 62.6773 107.633 63.0453 107.804 63.472C107.974 63.8987 108.06 64.3733 108.06 64.896V70H106.38L106.316 68.896C106.092 69.3013 105.756 69.6267 105.308 69.872C104.86 70.1173 104.337 70.24 103.74 70.24ZM102.636 67.536C102.636 67.7707 102.7 67.984 102.828 68.176C102.956 68.3573 103.132 68.5013 103.356 68.608C103.59 68.7147 103.862 68.768 104.172 68.768C104.566 68.768 104.918 68.6827 105.228 68.512C105.537 68.3413 105.782 68.112 105.964 67.824C106.145 67.5253 106.236 67.1893 106.236 66.816V66.624C105.958 66.5067 105.67 66.416 105.372 66.352C105.084 66.2773 104.785 66.24 104.476 66.24C103.921 66.24 103.473 66.3573 103.132 66.592C102.801 66.8267 102.636 67.1413 102.636 67.536ZM110.039 70V61.632H111.719L111.783 62.784C112.028 62.3573 112.37 62.0213 112.807 61.776C113.255 61.52 113.767 61.392 114.343 61.392C114.972 61.392 115.516 61.5413 115.975 61.84C116.444 62.1387 116.807 62.56 117.063 63.104C117.319 63.648 117.447 64.288 117.447 65.024V70H115.607V65.232C115.607 64.5493 115.452 64.016 115.143 63.632C114.844 63.248 114.423 63.056 113.879 63.056C113.495 63.056 113.148 63.1467 112.839 63.328C112.54 63.5093 112.306 63.7547 112.135 64.064C111.964 64.3733 111.879 64.7307 111.879 65.136V70H110.039Z" fill="white"/>
<g clip-path="url(#clip0_1_165)">
<path d="M217.91 31.7306C217.763 31.2778 217.369 30.9479 216.896 30.8795L212.9 30.3015L211.113 26.698C210.901 26.2712 210.464 26.001 209.986 26.001C209.508 26.001 209.071 26.2712 208.859 26.6981L207.072 30.3015L203.076 30.8795C202.602 30.9479 202.209 31.2778 202.061 31.7306C201.913 32.1833 202.037 32.6803 202.379 33.0125L205.271 35.8174L204.588 39.7784C204.508 40.2476 204.701 40.7218 205.088 41.0015C205.307 41.1598 205.566 41.2403 205.827 41.2403C206.027 41.2403 206.228 41.1929 206.412 41.0966L209.986 39.2264L213.56 41.0966C213.984 41.3179 214.497 41.2812 214.884 41.0014C215.271 40.7217 215.464 40.2475 215.384 39.7783L214.701 35.8172L217.592 33.0124C217.935 32.6802 218.058 32.1832 217.91 31.7306Z" fill="#FFD751"/>
<path d="M217.911 31.7295C217.763 31.2768 217.37 30.9469 216.896 30.8785L212.9 30.3007L211.113 26.697C210.901 26.2702 210.464 26 209.986 26V39.2255L213.561 41.0956C213.984 41.3168 214.497 41.2802 214.884 41.0003C215.271 40.7206 215.465 40.2464 215.384 39.7773L214.701 35.8163L217.593 33.0113C217.935 32.6792 218.058 32.1822 217.911 31.7295Z" fill="#F4C82A"/>
<path d="M235.911 31.7306C235.763 31.2778 235.37 30.9479 234.896 30.8795L230.9 30.3015L229.113 26.698C228.901 26.2712 228.464 26.001 227.986 26.001C227.508 26.001 227.071 26.2712 226.859 26.6981L225.072 30.3015L221.076 30.8795C220.603 30.9479 220.209 31.2778 220.062 31.7306C219.914 32.1833 220.037 32.6803 220.38 33.0125L223.271 35.8174L222.589 39.7784C222.508 40.2476 222.702 40.7218 223.088 41.0015C223.307 41.1598 223.567 41.2403 223.827 41.2403C224.027 41.2403 224.228 41.1929 224.412 41.0966L227.986 39.2264L231.561 41.0966C231.984 41.3179 232.497 41.2812 232.884 41.0014C233.271 40.7217 233.465 40.2475 233.384 39.7783L232.701 35.8172L235.593 33.0124C235.935 32.6802 236.058 32.1832 235.911 31.7306Z" fill="#FFD751"/>
<path d="M235.911 31.7295C235.763 31.2768 235.37 30.9469 234.897 30.8785L230.9 30.3007L229.113 26.697C228.902 26.2702 228.465 26 227.986 26V39.2255L231.561 41.0956C231.984 41.3168 232.497 41.2802 232.884 41.0003C233.271 40.7206 233.465 40.2464 233.384 39.7773L232.702 35.8163L235.593 33.0113C235.936 32.6792 236.059 32.1822 235.911 31.7295Z" fill="#F4C82A"/>
<path d="M253.911 31.7306C253.763 31.2778 253.37 30.9479 252.897 30.8795L248.9 30.3015L247.113 26.698C246.901 26.2712 246.465 26.001 245.986 26.001C245.508 26.001 245.071 26.2712 244.86 26.6981L243.073 30.3015L239.076 30.8795C238.603 30.9479 238.21 31.2778 238.062 31.7306C237.914 32.1833 238.037 32.6803 238.38 33.0125L241.272 35.8174L240.589 39.7784C240.508 40.2476 240.702 40.7218 241.089 41.0015C241.308 41.1598 241.567 41.2403 241.827 41.2403C242.027 41.2403 242.228 41.1929 242.412 41.0966L245.986 39.2264L249.561 41.0966C249.984 41.3179 250.497 41.2812 250.884 41.0014C251.271 40.7217 251.465 40.2475 251.384 39.7783L250.701 35.8172L253.593 33.0124C253.935 32.6802 254.059 32.1832 253.911 31.7306Z" fill="#FFD751"/>
<path d="M253.911 31.7295C253.763 31.2768 253.37 30.9469 252.897 30.8785L248.901 30.3007L247.113 26.697C246.902 26.2702 246.465 26 245.987 26V39.2255L249.561 41.0956C249.985 41.3168 250.498 41.2802 250.885 41.0003C251.272 40.7206 251.465 40.2464 251.384 39.7773L250.702 35.8163L253.593 33.0113C253.936 32.6792 254.059 32.1822 253.911 31.7295Z" fill="#F4C82A"/>
<path d="M271.911 31.7306C271.763 31.2778 271.37 30.9479 270.897 30.8795L266.901 30.3015L265.113 26.698C264.902 26.2712 264.465 26.001 263.987 26.001C263.508 26.001 263.072 26.2712 262.86 26.6981L261.073 30.3015L257.076 30.8795C256.603 30.9479 256.21 31.2778 256.062 31.7306C255.914 32.1833 256.038 32.6803 256.38 33.0125L259.272 35.8174L258.589 39.7784C258.508 40.2476 258.702 40.7218 259.089 41.0015C259.308 41.1598 259.567 41.2403 259.828 41.2403C260.028 41.2403 260.228 41.1929 260.412 41.0966L263.987 39.2264L267.561 41.0966C267.984 41.3179 268.497 41.2812 268.884 41.0014C269.271 40.7217 269.465 40.2475 269.384 39.7783L268.702 35.8172L271.593 33.0124C271.936 32.6802 272.059 32.1832 271.911 31.7306Z" fill="#FFD751"/>
<path d="M271.911 31.7295C271.764 31.2768 271.37 30.9469 270.897 30.8785L266.901 30.3007L265.114 26.697C264.902 26.2702 264.465 26 263.987 26V39.2255L267.562 41.0956C267.985 41.3168 268.498 41.2802 268.885 41.0003C269.272 40.7206 269.466 40.2464 269.385 39.7773L268.702 35.8163L271.594 33.0113C271.936 32.6792 272.059 32.1822 271.911 31.7295Z" fill="#F4C82A"/>
<path d="M289.911 31.7306C289.764 31.2778 289.37 30.9479 288.897 30.8795L284.901 30.3015L283.114 26.698C282.902 26.2712 282.465 26.001 281.987 26.001C281.509 26.001 281.072 26.2712 280.86 26.6981L279.073 30.3015L275.077 30.8795C274.603 30.9479 274.21 31.2778 274.062 31.7306C273.914 32.1833 274.038 32.6803 274.38 33.0125L277.272 35.8174L276.589 39.7784C276.508 40.2476 276.702 40.7218 277.089 41.0015C277.308 41.1598 277.567 41.2403 277.828 41.2403C278.028 41.2403 278.229 41.1929 278.412 41.0966L281.987 39.2264L285.561 41.0966C285.985 41.3179 286.498 41.2812 286.885 41.0014C287.272 40.7217 287.465 40.2475 287.385 39.7783L286.702 35.8172L289.593 33.0124C289.936 32.6802 290.059 32.1832 289.911 31.7306Z" fill="#FFD751"/>
<path d="M289.912 31.7295C289.764 31.2768 289.371 30.9469 288.897 30.8785L284.901 30.3007L283.114 26.697C282.902 26.2702 282.465 26 281.987 26V39.2255L285.562 41.0956C285.985 41.3168 286.498 41.2802 286.885 41.0003C287.272 40.7206 287.466 40.2464 287.385 39.7773L286.702 35.8163L289.594 33.0113C289.936 32.6792 290.059 32.1822 289.912 31.7295Z" fill="#F4C82A"/>
</g>
<defs>
<filter id="filter0_b_1_165" x="-20" y="-20" width="350" height="140" filterUnits="userSpaceOnUse" color-interpolation-filters="sRGB">
<feFlood flood-opacity="0" result="BackgroundImageFix"/>
<feGaussianBlur in="BackgroundImageFix" stdDeviation="10"/>
<feComposite in2="SourceAlpha" operator="in" result="effect1_backgroundBlur_1_165"/>
<feBlend mode="normal" in="SourceGraphic" in2="effect1_backgroundBlur_1_165" result="shape"/>
</filter>
<linearGradient id="paint0_linear_1_165" x1="1.01572e-05" y1="-0.314828" x2="307.913" y2="105.744" gradientUnits="userSpaceOnUse">
<stop stop-color="#989898"/>
<stop offset="1" stop-color="white" stop-opacity="0"/>
</linearGradient>
<clipPath id="clip0_1_165">
<rect width="88" height="15" fill="white" transform="translate(202 26)"/>
</clipPath>
</defs>
</svg>
